<svg xmlns="http://www.w3.org/2000/svg" viewBox="0 0 1400 2020" font-family="'Segoe UI','Microsoft JhengHei','PingFang TC',system-ui,sans-serif">
  <defs>
    <!-- gradients -->
    <linearGradient id="bg" x1="0" y1="0" x2="0" y2="1">
      <stop offset="0%" stop-color="#eef2ff"/>
      <stop offset="100%" stop-color="#f8fafc"/>
    </linearGradient>
    <linearGradient id="header" x1="0" y1="0" x2="1" y2="0">
      <stop offset="0%" stop-color="#1e40af"/>
      <stop offset="100%" stop-color="#0ea5e9"/>
    </linearGradient>
    <linearGradient id="redBadge" x1="0" y1="0" x2="0" y2="1">
      <stop offset="0%" stop-color="#f87171"/><stop offset="100%" stop-color="#dc2626"/>
    </linearGradient>
    <linearGradient id="blueBadge" x1="0" y1="0" x2="0" y2="1">
      <stop offset="0%" stop-color="#60a5fa"/><stop offset="100%" stop-color="#2563eb"/>
    </linearGradient>
    <linearGradient id="orangeBadge" x1="0" y1="0" x2="0" y2="1">
      <stop offset="0%" stop-color="#fbbf24"/><stop offset="100%" stop-color="#ea580c"/>
    </linearGradient>
    <linearGradient id="purpleBadge" x1="0" y1="0" x2="0" y2="1">
      <stop offset="0%" stop-color="#a78bfa"/><stop offset="100%" stop-color="#7c3aed"/>
    </linearGradient>
    <linearGradient id="greenPanel" x1="0" y1="0" x2="1" y2="0">
      <stop offset="0%" stop-color="#16a34a"/><stop offset="100%" stop-color="#10b981"/>
    </linearGradient>
    <linearGradient id="orangePanel" x1="0" y1="0" x2="1" y2="0">
      <stop offset="0%" stop-color="#ea580c"/><stop offset="100%" stop-color="#f59e0b"/>
    </linearGradient>
    <linearGradient id="pipelineGrad" x1="0" y1="0" x2="1" y2="0">
      <stop offset="0%" stop-color="#dbeafe"/><stop offset="100%" stop-color="#bfdbfe"/>
    </linearGradient>
    <linearGradient id="pipelineGradEnd" x1="0" y1="0" x2="1" y2="0">
      <stop offset="0%" stop-color="#3b82f6"/><stop offset="100%" stop-color="#1d4ed8"/>
    </linearGradient>
    <!-- drop shadow -->
    <filter id="shadow" x="-20%" y="-20%" width="140%" height="140%">
      <feDropShadow dx="0" dy="3" stdDeviation="6" flood-color="#0f172a" flood-opacity="0.12"/>
    </filter>
    <filter id="softShadow" x="-20%" y="-20%" width="140%" height="140%">
      <feDropShadow dx="0" dy="2" stdDeviation="3" flood-color="#0f172a" flood-opacity="0.08"/>
    </filter>
  </defs>

  <rect width="1400" height="2020" fill="url(#bg)"/>

  <!-- =================== HEADER =================== -->
  <g filter="url(#shadow)">
    <rect x="40" y="30" width="1320" height="120" rx="18" fill="url(#header)"/>
  </g>
  <text x="80" y="86" font-size="40" font-weight="800" fill="#ffffff">HW4 — DRL Survey × AI Harness</text>
  <text x="80" y="118" font-size="17" fill="#dbeafe">從「寫一份 DRL Survey 為什麼這麼痛」出發，拆成 pipeline，再用兩種方式交付</text>
  <text x="80" y="140" font-size="14" fill="#bfdbfe" opacity="0.85">Problem → Pipeline → Modules → Outcomes</text>
  <g transform="translate(1170, 60)">
    <rect width="170" height="36" rx="18" fill="#fbbf24"/>
    <text x="85" y="24" font-size="14" font-weight="800" fill="#7c2d12" text-anchor="middle">TWO-VERSION</text>
    <rect y="44" width="170" height="36" rx="18" fill="#ffffff" fill-opacity="0.18" stroke="#ffffff" stroke-opacity="0.5"/>
    <text x="85" y="68" font-size="13" font-weight="600" fill="#ffffff" text-anchor="middle">A · Survey  +  B · Harness</text>
  </g>

  <!-- =================== SECTION 1 — PROBLEM =================== -->
  <g filter="url(#shadow)">
    <rect x="40" y="190" width="1320" height="320" rx="18" fill="#ffffff"/>
  </g>
  <!-- number badge -->
  <g transform="translate(70, 215)">
    <rect width="68" height="68" rx="14" fill="url(#redBadge)" filter="url(#softShadow)"/>
    <text x="34" y="50" font-size="38" font-weight="800" fill="#ffffff" text-anchor="middle">1</text>
  </g>
  <text x="160" y="245" font-size="26" font-weight="800" fill="#0f172a">Problem</text>
  <text x="160" y="272" font-size="15" fill="#475569">寫一份 DRL Survey 為什麼這麼痛 — 三個讓研究生在 2025 既慢又漏 SOTA 的 pain point</text>
  <line x1="70" y1="295" x2="1330" y2="295" stroke="#fee2e2" stroke-width="2"/>

  <!-- Pain card 1 -->
  <g transform="translate(70, 320)" filter="url(#softShadow)">
    <rect width="400" height="170" rx="14" fill="#fef2f2" stroke="#fca5a5" stroke-width="1.5"/>
    <circle cx="48" cy="48" r="28" fill="url(#redBadge)"/>
    <text x="48" y="58" font-size="28" text-anchor="middle">📚</text>
    <text x="92" y="42" font-size="18" font-weight="700" fill="#991b1b">資訊爆量</text>
    <text x="92" y="62" font-size="12" font-weight="600" fill="#dc2626">INFORMATION OVERLOAD</text>
    <line x1="20" y1="92" x2="380" y2="92" stroke="#fecaca"/>
    <text x="20" y="118" font-size="13" fill="#374151">• arXiv 每天上百篇 paper</text>
    <text x="20" y="138" font-size="13" fill="#374151">• 人工無法即時判斷哪幾篇是 SOTA</text>
    <text x="20" y="158" font-size="12" fill="#7f1d1d" font-style="italic">→ 漏掉 2024-26 五條重要主軸</text>
  </g>
  <!-- Pain card 2 -->
  <g transform="translate(500, 320)" filter="url(#softShadow)">
    <rect width="400" height="170" rx="14" fill="#fef2f2" stroke="#fca5a5" stroke-width="1.5"/>
    <circle cx="48" cy="48" r="28" fill="url(#redBadge)"/>
    <text x="48" y="58" font-size="28" text-anchor="middle">🤖</text>
    <text x="92" y="42" font-size="18" font-weight="700" fill="#991b1b">LLM 幻覺 + 知識截止</text>
    <text x="92" y="62" font-size="12" font-weight="600" fill="#dc2626">HALLUCINATION &amp; CUTOFF</text>
    <line x1="20" y1="92" x2="380" y2="92" stroke="#fecaca"/>
    <text x="20" y="118" font-size="13" fill="#374151">• 直接問 ChatGPT 會編造 arXiv ID</text>
    <text x="20" y="138" font-size="13" fill="#374151">• 不知 2025+ 新發表的 paper</text>
    <text x="20" y="158" font-size="12" fill="#7f1d1d" font-style="italic">→ 引用無法驗證、SOTA 缺漏</text>
  </g>
  <!-- Pain card 3 -->
  <g transform="translate(930, 320)" filter="url(#softShadow)">
    <rect width="400" height="170" rx="14" fill="#fef2f2" stroke="#fca5a5" stroke-width="1.5"/>
    <circle cx="48" cy="48" r="28" fill="url(#redBadge)"/>
    <text x="48" y="58" font-size="28" text-anchor="middle">⏱</text>
    <text x="92" y="42" font-size="18" font-weight="700" fill="#991b1b">手動 synthesis 太慢</text>
    <text x="92" y="62" font-size="12" font-weight="600" fill="#dc2626">MANUAL SYNTHESIS</text>
    <line x1="20" y1="92" x2="380" y2="92" stroke="#fecaca"/>
    <text x="20" y="118" font-size="13" fill="#374151">• 引用格式手動轉、整理引用</text>
    <text x="20" y="138" font-size="13" fill="#374151">• 跨 paper 比較全靠抄筆記</text>
    <text x="20" y="158" font-size="12" fill="#7f1d1d" font-style="italic">→ 時間花在排版而非讀懂</text>
  </g>

  <!-- =================== SECTION 2 — PIPELINE =================== -->
  <g filter="url(#shadow)">
    <rect x="40" y="540" width="1320" height="280" rx="18" fill="#ffffff"/>
  </g>
  <g transform="translate(70, 565)">
    <rect width="68" height="68" rx="14" fill="url(#blueBadge)" filter="url(#softShadow)"/>
    <text x="34" y="50" font-size="38" font-weight="800" fill="#ffffff" text-anchor="middle">2</text>
  </g>
  <text x="160" y="595" font-size="26" font-weight="800" fill="#0f172a">Pipeline</text>
  <text x="160" y="622" font-size="15" fill="#475569">把「寫 Survey」拆成 6 個可重複的 stage — A 與 B 共同的骨幹</text>
  <line x1="70" y1="645" x2="1330" y2="645" stroke="#dbeafe" stroke-width="2"/>

  <!-- pipeline stages -->
  <g transform="translate(70, 680)" font-size="13">
    <!-- 1 Plan -->
    <g filter="url(#softShadow)">
      <rect width="195" height="110" rx="12" fill="url(#pipelineGrad)" stroke="#3b82f6" stroke-width="1.5"/>
      <circle cx="36" cy="34" r="20" fill="#ffffff"/>
      <text x="36" y="42" font-size="20" text-anchor="middle">📋</text>
      <text x="64" y="32" font-size="11" font-weight="700" fill="#1e40af">STAGE 1</text>
      <text x="64" y="50" font-size="16" font-weight="800" fill="#1e3a8a">Plan</text>
      <text x="14" y="80" fill="#1e3a8a">拆 query 為</text>
      <text x="14" y="96" fill="#1e3a8a">N 個 sub-topic</text>
    </g>
    <path d="M 200 55 L 217 55" stroke="#2563eb" stroke-width="3" fill="none"/>
    <polygon points="215,49 226,55 215,61" fill="#2563eb"/>

    <!-- 2 Search -->
    <g transform="translate(230, 0)" filter="url(#softShadow)">
      <rect width="195" height="110" rx="12" fill="url(#pipelineGrad)" stroke="#3b82f6" stroke-width="1.5"/>
      <circle cx="36" cy="34" r="20" fill="#ffffff"/>
      <text x="36" y="42" font-size="20" text-anchor="middle">🔍</text>
      <text x="64" y="32" font-size="11" font-weight="700" fill="#1e40af">STAGE 2</text>
      <text x="64" y="50" font-size="16" font-weight="800" fill="#1e3a8a">Search</text>
      <text x="14" y="80" fill="#1e3a8a">arXiv 查詢</text>
      <text x="14" y="96" fill="#1e3a8a">+ 年份過濾</text>
    </g>
    <path d="M 430 55 L 447 55" stroke="#2563eb" stroke-width="3" fill="none"/>
    <polygon points="445,49 456,55 445,61" fill="#2563eb"/>

    <!-- 3 Read -->
    <g transform="translate(460, 0)" filter="url(#softShadow)">
      <rect width="195" height="110" rx="12" fill="url(#pipelineGrad)" stroke="#3b82f6" stroke-width="1.5"/>
      <circle cx="36" cy="34" r="20" fill="#ffffff"/>
      <text x="36" y="42" font-size="20" text-anchor="middle">📖</text>
      <text x="64" y="32" font-size="11" font-weight="700" fill="#1e40af">STAGE 3</text>
      <text x="64" y="50" font-size="16" font-weight="800" fill="#1e3a8a">Read</text>
      <text x="14" y="80" fill="#1e3a8a">逐篇 summarize</text>
      <text x="14" y="96" fill="#1e3a8a">抓 contribution</text>
    </g>
    <path d="M 660 55 L 677 55" stroke="#2563eb" stroke-width="3" fill="none"/>
    <polygon points="675,49 686,55 675,61" fill="#2563eb"/>

    <!-- 4 Critic -->
    <g transform="translate(690, 0)" filter="url(#softShadow)">
      <rect width="195" height="110" rx="12" fill="url(#pipelineGrad)" stroke="#3b82f6" stroke-width="1.5"/>
      <circle cx="36" cy="34" r="20" fill="#ffffff"/>
      <text x="36" y="42" font-size="20" text-anchor="middle">🔎</text>
      <text x="64" y="32" font-size="11" font-weight="700" fill="#1e40af">STAGE 4</text>
      <text x="64" y="50" font-size="16" font-weight="800" fill="#1e3a8a">Critic</text>
      <text x="14" y="80" fill="#1e3a8a">驗證 coverage</text>
      <text x="14" y="96" fill="#1e3a8a">補洞 (≤1 round)</text>
    </g>
    <path d="M 890 55 L 907 55" stroke="#2563eb" stroke-width="3" fill="none"/>
    <polygon points="905,49 916,55 905,61" fill="#2563eb"/>

    <!-- 5 Compile -->
    <g transform="translate(920, 0)" filter="url(#softShadow)">
      <rect width="195" height="110" rx="12" fill="url(#pipelineGrad)" stroke="#3b82f6" stroke-width="1.5"/>
      <circle cx="36" cy="34" r="20" fill="#ffffff"/>
      <text x="36" y="42" font-size="20" text-anchor="middle">📝</text>
      <text x="64" y="32" font-size="11" font-weight="700" fill="#1e40af">STAGE 5</text>
      <text x="64" y="50" font-size="16" font-weight="800" fill="#1e3a8a">Compile</text>
      <text x="14" y="80" fill="#1e3a8a">合成 sections</text>
      <text x="14" y="96" fill="#1e3a8a">+ 引用</text>
    </g>
    <path d="M 1120 55 L 1137 55" stroke="#2563eb" stroke-width="3" fill="none"/>
    <polygon points="1135,49 1146,55 1135,61" fill="#2563eb"/>

    <!-- 6 Output -->
    <g transform="translate(1150, 0)" filter="url(#softShadow)">
      <rect width="125" height="110" rx="12" fill="url(#pipelineGradEnd)"/>
      <circle cx="32" cy="34" r="20" fill="#ffffff"/>
      <text x="32" y="42" font-size="20" text-anchor="middle">✨</text>
      <text x="60" y="32" font-size="11" font-weight="700" fill="#bfdbfe">FINAL</text>
      <text x="60" y="50" font-size="16" font-weight="800" fill="#ffffff">Output</text>
      <text x="14" y="80" font-size="12" fill="#ffffff">Structured</text>
      <text x="14" y="96" font-size="12" fill="#ffffff">report + refs</text>
    </g>
  </g>

  <!-- =================== SECTION 3 — MODULES =================== -->
  <g filter="url(#shadow)">
    <rect x="40" y="850" width="1320" height="600" rx="18" fill="#ffffff"/>
  </g>
  <g transform="translate(70, 875)">
    <rect width="68" height="68" rx="14" fill="url(#orangeBadge)" filter="url(#softShadow)"/>
    <text x="34" y="50" font-size="38" font-weight="800" fill="#ffffff" text-anchor="middle">3</text>
  </g>
  <text x="160" y="905" font-size="26" font-weight="800" fill="#0f172a">Solution Modules</text>
  <text x="160" y="932" font-size="15" fill="#475569">同一個 pipeline，兩種交付方式 — A 親自走完產出 survey 成品；B 設計能跑這個 pipeline 的 AI Harness</text>
  <line x1="70" y1="955" x2="1330" y2="955" stroke="#fde68a" stroke-width="2"/>

  <!-- VERSION A panel -->
  <g transform="translate(70, 980)" filter="url(#softShadow)">
    <rect width="615" height="450" rx="14" fill="#f0fdf4" stroke="#86efac" stroke-width="1.5"/>
    <rect width="615" height="56" rx="14" fill="url(#greenPanel)"/>
    <rect y="46" width="615" height="14" fill="#16a34a"/>
    <circle cx="34" cy="28" r="20" fill="#ffffff" fill-opacity="0.25"/>
    <text x="34" y="36" font-size="20" font-weight="800" fill="#ffffff" text-anchor="middle">A</text>
    <text x="66" y="26" font-size="11" font-weight="700" fill="#dcfce7">ORIGINAL SYLLABUS</text>
    <text x="66" y="46" font-size="19" font-weight="800" fill="#ffffff">DRL Survey · Human-run pipeline</text>

    <!-- module cards 2x2 + spanning card -->
    <g transform="translate(20, 80)" font-size="13">
      <g>
        <rect width="280" height="100" rx="10" fill="#ffffff" stroke="#bbf7d0"/>
        <circle cx="32" cy="32" r="20" fill="#dcfce7"/>
        <text x="32" y="40" font-size="18" text-anchor="middle">📚</text>
        <text x="62" y="28" font-size="14" font-weight="800" fill="#166534">Part 1–7 文獻綜述</text>
        <text x="62" y="50" font-size="11" fill="#16a34a">DRL ALGORITHMS → AGENTIC AI</text>
        <text x="14" y="76" fill="#374151">DRL 基礎 → 系統 → Agentic →</text>
        <text x="14" y="92" fill="#374151">Robotics/Game/Sci → 2024-26 主軸</text>
      </g>
      <g transform="translate(295, 0)">
        <rect width="280" height="100" rx="10" fill="#ffffff" stroke="#bbf7d0"/>
        <circle cx="32" cy="32" r="20" fill="#dcfce7"/>
        <text x="32" y="40" font-size="18" text-anchor="middle">📊</text>
        <text x="62" y="28" font-size="14" font-weight="800" fill="#166534">Part 6 Comparative</text>
        <text x="62" y="50" font-size="11" fill="#16a34a">CROSS-PAPER ANALYSIS</text>
        <text x="14" y="76" fill="#374151">演算法演化譜系 + 系統比較表</text>
        <text x="14" y="92" fill="#374151">+ 三大應用領域橫向比較</text>
      </g>
      <g transform="translate(0, 115)">
        <rect width="280" height="100" rx="10" fill="#ffffff" stroke="#bbf7d0"/>
        <circle cx="32" cy="32" r="20" fill="#dcfce7"/>
        <text x="32" y="40" font-size="18" text-anchor="middle">🎯</text>
        <text x="62" y="28" font-size="14" font-weight="800" fill="#166534">Bonus B · PPO MVP</text>
        <text x="62" y="50" font-size="11" fill="#16a34a">STABLE-BASELINES3</text>
        <text x="14" y="76" fill="#374151">CartPole-v1 訓練 → reward 500/500</text>
        <text x="14" y="92" fill="#374151">附訓練曲線 PNG + monitor log</text>
      </g>
      <g transform="translate(295, 115)">
        <rect width="280" height="100" rx="10" fill="#ffffff" stroke="#bbf7d0"/>
        <circle cx="32" cy="32" r="20" fill="#dcfce7"/>
        <text x="32" y="40" font-size="18" text-anchor="middle">🤖</text>
        <text x="62" y="28" font-size="14" font-weight="800" fill="#166534">Bonus C · ReAct Agent</text>
        <text x="62" y="50" font-size="11" fill="#16a34a">2-TOOL LLM AGENT</text>
        <text x="14" y="76" fill="#374151">Claude API 可選；offline 也能跑</text>
        <text x="14" y="92" fill="#374151">→ B 版 Harness 的雛形</text>
      </g>
      <g transform="translate(0, 230)">
        <rect width="575" height="118" rx="10" fill="#ecfdf5" stroke="#86efac"/>
        <circle cx="32" cy="32" r="20" fill="#16a34a"/>
        <text x="32" y="40" font-size="18" text-anchor="middle" fill="#ffffff">📑</text>
        <text x="62" y="32" font-size="15" font-weight="800" fill="#14532d">交付物</text>
        <text x="14" y="74" fill="#374151">📘 HW4_DRL_Survey.html（IEEE 排版）   🎞 slides.md（15 張）</text>
        <text x="14" y="94" fill="#374151">🤖 PPO model.zip + reward 曲線    🌐 docs/index.html（GitHub Pages）</text>
        <text x="14" y="110" font-size="11" font-style="italic" fill="#16a34a">入口 → A_DRL_Survey/README.md</text>
      </g>
    </g>
  </g>

  <!-- VERSION B panel -->
  <g transform="translate(715, 980)" filter="url(#softShadow)">
    <rect width="615" height="450" rx="14" fill="#fff7ed" stroke="#fdba74" stroke-width="1.5"/>
    <rect width="615" height="56" rx="14" fill="url(#orangePanel)"/>
    <rect y="46" width="615" height="14" fill="#ea580c"/>
    <circle cx="34" cy="28" r="20" fill="#ffffff" fill-opacity="0.25"/>
    <text x="34" y="36" font-size="20" font-weight="800" fill="#ffffff" text-anchor="middle">B</text>
    <text x="66" y="26" font-size="11" font-weight="700" fill="#ffedd5">NEW SYLLABUS</text>
    <text x="66" y="46" font-size="19" font-weight="800" fill="#ffffff">AI Harness · System that runs the pipeline</text>

    <g transform="translate(20, 80)" font-size="13">
      <g>
        <rect width="280" height="100" rx="10" fill="#ffffff" stroke="#fed7aa"/>
        <circle cx="32" cy="32" r="20" fill="#ffedd5"/>
        <text x="32" y="40" font-size="18" text-anchor="middle">🧠</text>
        <text x="62" y="28" font-size="14" font-weight="800" fill="#9a3412">LLM Controller</text>
        <text x="62" y="50" font-size="11" fill="#ea580c">PLANNER → CRITIC → COMPILER</text>
        <text x="14" y="76" fill="#374151">ReAct loop + strict JSON tool calls</text>
        <text x="14" y="92" fill="#374151">Claude / GPT-4o 皆可（offline fallback）</text>
      </g>
      <g transform="translate(295, 0)">
        <rect width="280" height="100" rx="10" fill="#ffffff" stroke="#fed7aa"/>
        <circle cx="32" cy="32" r="20" fill="#ffedd5"/>
        <text x="32" y="40" font-size="18" text-anchor="middle">🛠</text>
        <text x="62" y="28" font-size="14" font-weight="800" fill="#9a3412">4 Tools</text>
        <text x="62" y="50" font-size="11" fill="#ea580c">STRICT-SCHEMA FUNCTION CALL</text>
        <text x="14" y="76" fill="#374151">arxiv_search · paper_summarize</text>
        <text x="14" y="92" fill="#374151">citation_format · note_save</text>
      </g>
      <g transform="translate(0, 115)">
        <rect width="280" height="100" rx="10" fill="#ffffff" stroke="#fed7aa"/>
        <circle cx="32" cy="32" r="20" fill="#ffedd5"/>
        <text x="32" y="40" font-size="18" text-anchor="middle">💾</text>
        <text x="62" y="28" font-size="14" font-weight="800" fill="#9a3412">Dual Memory</text>
        <text x="62" y="50" font-size="11" fill="#ea580c">SHORT + LONG TERM</text>
        <text x="14" y="76" fill="#374151">short：對話 + tool trace</text>
        <text x="14" y="92" fill="#374151">long：跨 session 的 notes.json</text>
      </g>
      <g transform="translate(295, 115)">
        <rect width="280" height="100" rx="10" fill="#ffffff" stroke="#fed7aa"/>
        <circle cx="32" cy="32" r="20" fill="#ffedd5"/>
        <text x="32" y="40" font-size="18" text-anchor="middle">📐</text>
        <text x="62" y="28" font-size="14" font-weight="800" fill="#9a3412">Evaluation</text>
        <text x="62" y="50" font-size="11" fill="#ea580c">5 QUANT + 5 QUAL + ABLATION</text>
        <text x="14" y="76" fill="#374151">Coverage F1 · cite acc · latency</text>
        <text x="14" y="92" fill="#374151">cost · 5-pt Likert · 4 組 ablation</text>
      </g>
      <g transform="translate(0, 230)">
        <rect width="575" height="118" rx="10" fill="#fff7ed" stroke="#fdba74"/>
        <circle cx="32" cy="32" r="20" fill="#ea580c"/>
        <text x="32" y="40" font-size="18" text-anchor="middle" fill="#ffffff">📑</text>
        <text x="62" y="32" font-size="15" font-weight="800" fill="#7c2d12">交付物</text>
        <text x="14" y="74" fill="#374151">📕 report.html（≤5 頁）   🖼 infographic/architecture.html（6-panel SVG）</text>
        <text x="14" y="94" fill="#374151">⚙ working MVP (6 papers / 22 tool calls)   📜 log.md（14 iterations）</text>
        <text x="14" y="110" font-size="11" font-style="italic" fill="#ea580c">入口 → B_AI_Harness/README.md</text>
      </g>
    </g>
  </g>

  <!-- =================== SECTION 4 — OUTCOMES =================== -->
  <g filter="url(#shadow)">
    <rect x="40" y="1480" width="1320" height="460" rx="18" fill="#ffffff"/>
  </g>
  <g transform="translate(70, 1505)">
    <rect width="68" height="68" rx="14" fill="url(#purpleBadge)" filter="url(#softShadow)"/>
    <text x="34" y="50" font-size="38" font-weight="800" fill="#ffffff" text-anchor="middle">4</text>
  </g>
  <text x="160" y="1535" font-size="26" font-weight="800" fill="#0f172a">Expected Outcomes</text>
  <text x="160" y="1562" font-size="15" fill="#475569">每一項都附 file path — 不是承諾，是已交付且驗證過的檔案</text>
  <line x1="70" y1="1585" x2="1330" y2="1585" stroke="#ede9fe" stroke-width="2"/>

  <!-- outcome rows -->
  <g transform="translate(70, 1610)" font-size="13">
    <!-- A outcomes panel -->
    <g filter="url(#softShadow)">
      <rect width="615" height="305" rx="12" fill="#faf5ff" stroke="#ddd6fe" stroke-width="1.5"/>
      <rect width="615" height="44" rx="12" fill="#7c3aed"/>
      <rect y="34" width="615" height="10" fill="#7c3aed"/>
      <text x="24" y="29" font-size="16" font-weight="800" fill="#ffffff">Version A — DRL Survey</text>
      <text x="595" y="29" font-size="11" fill="#ddd6fe" text-anchor="end">6 deliverables</text>

      <g transform="translate(18, 60)">
        <rect width="579" height="34" rx="6" fill="#ffffff" stroke="#e9d5ff"/>
        <circle cx="20" cy="17" r="11" fill="#7c3aed"/>
        <text x="20" y="22" font-size="12" text-anchor="middle" fill="#ffffff">📘</text>
        <text x="40" y="22" font-weight="700" fill="#5b21b6">完整書面報告</text>
        <text x="190" y="22" fill="#374151">11,575 字 / 100 refs / IEEE 排版 HTML</text>

        <rect y="40" width="579" height="34" rx="6" fill="#ffffff" stroke="#e9d5ff"/>
        <circle cx="20" cy="57" r="11" fill="#7c3aed"/>
        <text x="20" y="62" font-size="12" text-anchor="middle" fill="#ffffff">🎞</text>
        <text x="40" y="62" font-weight="700" fill="#5b21b6">Presentation</text>
        <text x="190" y="62" fill="#374151">15 張 slides.md（Marp / Slidev compatible）</text>

        <rect y="80" width="579" height="34" rx="6" fill="#ffffff" stroke="#e9d5ff"/>
        <circle cx="20" cy="97" r="11" fill="#7c3aed"/>
        <text x="20" y="102" font-size="12" text-anchor="middle" fill="#ffffff">🤖</text>
        <text x="40" y="102" font-weight="700" fill="#5b21b6">PPO MVP</text>
        <text x="190" y="102" fill="#374151">CartPole reward 500/500 + 訓練曲線</text>

        <rect y="120" width="579" height="34" rx="6" fill="#ffffff" stroke="#e9d5ff"/>
        <circle cx="20" cy="137" r="11" fill="#7c3aed"/>
        <text x="20" y="142" font-size="12" text-anchor="middle" fill="#ffffff">🧠</text>
        <text x="40" y="142" font-weight="700" fill="#5b21b6">LLM Agent</text>
        <text x="190" y="142" fill="#374151">ReAct demo + transcript（離線可重現）</text>

        <rect y="160" width="579" height="34" rx="6" fill="#ffffff" stroke="#e9d5ff"/>
        <circle cx="20" cy="177" r="11" fill="#7c3aed"/>
        <text x="20" y="182" font-size="12" text-anchor="middle" fill="#ffffff">🌐</text>
        <text x="40" y="182" font-weight="700" fill="#5b21b6">Live demo</text>
        <text x="190" y="182" fill="#374151">A_DRL_Survey/docs/index.html</text>

        <rect y="200" width="579" height="34" rx="6" fill="#ffffff" stroke="#e9d5ff"/>
        <circle cx="20" cy="217" r="11" fill="#7c3aed"/>
        <text x="20" y="222" font-size="12" text-anchor="middle" fill="#ffffff">🗂</text>
        <text x="40" y="222" font-weight="700" fill="#5b21b6">References</text>
        <text x="190" y="222" fill="#374151">10_references.md — 100 條 BibTeX-ready</text>
      </g>
    </g>

    <!-- B outcomes panel -->
    <g transform="translate(645, 0)" filter="url(#softShadow)">
      <rect width="615" height="305" rx="12" fill="#faf5ff" stroke="#ddd6fe" stroke-width="1.5"/>
      <rect width="615" height="44" rx="12" fill="#7c3aed"/>
      <rect y="34" width="615" height="10" fill="#7c3aed"/>
      <text x="24" y="29" font-size="16" font-weight="800" fill="#ffffff">Version B — AI Harness</text>
      <text x="595" y="29" font-size="11" fill="#ddd6fe" text-anchor="end">6 deliverables</text>

      <g transform="translate(18, 60)">
        <rect width="579" height="34" rx="6" fill="#ffffff" stroke="#e9d5ff"/>
        <circle cx="20" cy="17" r="11" fill="#7c3aed"/>
        <text x="20" y="22" font-size="12" text-anchor="middle" fill="#ffffff">📕</text>
        <text x="40" y="22" font-weight="700" fill="#5b21b6">System design report</text>
        <text x="220" y="22" fill="#374151">≤5 頁書面（HTML / md） · 含 sequence diagram</text>

        <rect y="40" width="579" height="34" rx="6" fill="#ffffff" stroke="#e9d5ff"/>
        <circle cx="20" cy="57" r="11" fill="#7c3aed"/>
        <text x="20" y="62" font-size="12" text-anchor="middle" fill="#ffffff">🖼</text>
        <text x="40" y="62" font-weight="700" fill="#5b21b6">Architecture infographic</text>
        <text x="220" y="62" fill="#374151">6-panel SVG（user / controller / tool / memory）</text>

        <rect y="80" width="579" height="34" rx="6" fill="#ffffff" stroke="#e9d5ff"/>
        <circle cx="20" cy="97" r="11" fill="#7c3aed"/>
        <text x="20" y="102" font-size="12" text-anchor="middle" fill="#ffffff">⚙</text>
        <text x="40" y="102" font-weight="700" fill="#5b21b6">Working MVP</text>
        <text x="220" y="102" fill="#374151">6 papers / 22 tool calls / F1 0.74 / 0.04 s（offline）</text>

        <rect y="120" width="579" height="34" rx="6" fill="#ffffff" stroke="#e9d5ff"/>
        <circle cx="20" cy="137" r="11" fill="#7c3aed"/>
        <text x="20" y="142" font-size="12" text-anchor="middle" fill="#ffffff">📜</text>
        <text x="40" y="142" font-weight="700" fill="#5b21b6">log.md</text>
        <text x="220" y="142" fill="#374151">14 次設計 iteration + 15 條 decision table</text>

        <rect y="160" width="579" height="34" rx="6" fill="#ffffff" stroke="#e9d5ff"/>
        <circle cx="20" cy="177" r="11" fill="#7c3aed"/>
        <text x="20" y="182" font-size="12" text-anchor="middle" fill="#ffffff">📊</text>
        <text x="40" y="182" font-weight="700" fill="#5b21b6">Evaluation plan</text>
        <text x="220" y="182" fill="#374151">5 量化 + 5 質化 + 4 組 ablation 規格</text>

        <rect y="200" width="579" height="34" rx="6" fill="#ffffff" stroke="#e9d5ff"/>
        <circle cx="20" cy="217" r="11" fill="#7c3aed"/>
        <text x="20" y="222" font-size="12" text-anchor="middle" fill="#ffffff">💾</text>
        <text x="40" y="222" font-weight="700" fill="#5b21b6">Persisted notes</text>
        <text x="220" y="222" fill="#374151">artifacts/notes.json（long-term memory 樣本）</text>
      </g>
    </g>
  </g>

  <!-- =================== FOOTER =================== -->
  <g filter="url(#softShadow)">
    <rect x="40" y="1965" width="1320" height="44" rx="10" fill="#0f172a"/>
  </g>
  <circle cx="68" cy="1987" r="10" fill="#fbbf24"/>
  <text x="68" y="1992" font-size="12" font-weight="800" fill="#0f172a" text-anchor="middle">↔</text>
  <text x="90" y="1992" font-size="13" fill="#cbd5e1">A 與 B 互為鏡像：A 是 pipeline 的 output，B 是能跑這個 pipeline 的 system</text>
  <text x="1330" y="1992" font-size="13" font-weight="700" fill="#fbbf24" text-anchor="end">A_DRL_Survey/  ·  B_AI_Harness/</text>
</svg>
